<svg width="144" height="144" viewBox="0 0 144 144" fill="none" xmlns="http://www.w3.org/2000/svg">
<g clip-path="url(#clip0)">
<path d="M90.059 68.5828L76.0809 96.5391C75.6999 97.3003 75.1107 97.9378 74.3819 98.3776C73.6531 98.8174 72.8145 99.0415 71.9635 99.0238C71.1124 99.0061 70.2839 98.7475 69.5739 98.2778C68.864 97.8081 68.3019 97.1467 67.9528 96.3703L51.9496 60.8485L43.5121 81.0141H17.0465L68.3746 133.467C68.8423 133.954 69.4035 134.341 70.0246 134.606C70.6456 134.87 71.3137 135.007 71.9887 135.007C72.6637 135.007 73.3318 134.87 73.9528 134.606C74.5739 134.341 75.1351 133.954 75.6028 133.467L126.962 81.0141H96.2746L90.059 68.5828ZM133.231 20.8125L132.556 20.1094C129.124 16.5976 125.025 13.8071 120.5 11.902C115.975 9.9968 111.114 9.01538 106.204 9.01538C101.294 9.01538 96.4336 9.9968 91.9083 11.902C87.3829 13.8071 83.284 16.5976 79.8524 20.1094L71.9999 28.1391L64.1531 20.1235C60.7248 16.6053 56.6268 13.8092 52.1008 11.9001C47.5747 9.99093 42.7122 9.00735 37.8 9.00735C32.8877 9.00735 28.0252 9.99093 23.4991 11.9001C18.9731 13.8092 14.8751 16.6053 11.4468 20.1235L10.7746 20.8125C-2.92222 34.8188 -3.51285 57.1219 8.72152 72.0282H37.5243L47.6184 47.7844C47.9547 46.9711 48.522 46.2743 49.2503 45.7801C49.9786 45.286 50.8357 45.0163 51.7157 45.0043C52.5957 44.9923 53.4599 45.2386 54.2013 45.7128C54.9427 46.1869 55.5289 46.8681 55.8871 47.6719L72.2587 84.0375L86.0399 56.5031C86.4146 55.758 86.9889 55.1316 87.6988 54.694C88.4088 54.2563 89.2264 54.0245 90.0604 54.0245C90.8944 54.0245 91.712 54.2563 92.422 54.694C93.1319 55.1316 93.7063 55.758 94.0809 56.5031L101.843 72.0282H135.281C147.518 57.1078 146.931 34.8047 133.231 20.8125V20.8125Z" fill="url(#paint0_linear)"/>
</g>
<defs>
<linearGradient id="paint0_linear" x1="-6.58724e-07" y1="135" x2="144" y2="9" gradientUnits="userSpaceOnUse">
<stop offset="0.171875" stop-color="#002278"/>
<stop offset="1" stop-color="#BD00FF"/>
</linearGradient>
<clipPath id="clip0">
<rect width="144" height="144" fill="white"/>
</clipPath>
</defs>
</svg>
